<?xml version="1.0" standalone="no"?>
<!DOCTYPE svg PUBLIC "-//W3C//DTD SVG 20010904//EN"
 "http://www.w3.org/TR/2001/REC-SVG-20010904/DTD/svg10.dtd">
<svg version="1.0" xmlns="http://www.w3.org/2000/svg"
 width="1024.000000pt" height="1024.000000pt" viewBox="0 0 1024.000000 1024.000000"
 preserveAspectRatio="xMidYMid meet">

<g transform="translate(0.000000,1024.000000) scale(0.100000,-0.100000)"
fill="#000000" stroke="none">
<path d="M4880 8051 c-87 -19 -154 -66 -195 -135 -13 -22 -64 -131 -113 -241
-49 -110 -242 -544 -429 -965 -188 -421 -409 -918 -493 -1105 -252 -562 -448
-1000 -527 -1180 -141 -321 -225 -510 -250 -565 -14 -30 -58 -129 -98 -220
-40 -91 -135 -307 -213 -480 -211 -475 -222 -502 -222 -552 0 -36 5 -49 31
-74 l30 -29 192 0 c179 0 195 1 234 22 23 13 50 35 61 51 12 15 63 125 115
243 144 325 434 978 542 1219 53 118 135 302 182 408 132 297 172 373 212 396
45 26 146 31 327 17 616 -50 1064 -249 1488 -660 176 -172 288 -306 886 -1066
442 -562 444 -564 528 -603 57 -27 58 -27 338 -30 186 -2 296 0 323 8 54 14
84 58 78 115 -4 34 -258 623 -502 1160 -35 77 -123 273 -195 435 -72 162 -149
333 -170 380 -21 47 -154 344 -296 660 -141 316 -284 638 -319 715 -117 262
-332 739 -532 1180 -110 242 -233 513 -273 602 -80 180 -117 230 -194 271 -51
26 -53 27 -281 29 -126 1 -246 -2 -265 -6z m277 -609 c26 -21 55 -78 163 -327
91 -209 851 -1921 1030 -2320 310 -691 357 -801 344 -814 -3 -3 -18 9 -33 28
-73 95 -294 353 -378 442 -393 415 -798 673 -1293 822 -153 47 -286 73 -516
101 -105 13 -201 29 -212 35 -35 19 -55 57 -48 91 3 17 111 268 240 558 128
290 260 586 291 657 220 501 312 703 332 723 26 26 50 28 80 4z"/>
<path d="M4233 4321 c-55 -35 -58 -48 -58 -253 l0 -188 30 -30 c27 -27 43 -32
155 -50 270 -44 471 -144 661 -327 196 -189 311 -417 354 -703 8 -52 15 -111
15 -130 0 -45 30 -94 72 -117 26 -13 63 -18 166 -21 168 -5 215 2 253 36 43
39 50 84 38 237 -17 226 -62 390 -159 591 -135 279 -337 513 -580 673 -268
177 -555 281 -815 297 -89 5 -103 3 -132 -15z"/>
<path d="M4305 3216 c-221 -70 -327 -315 -226 -520 107 -217 386 -280 576
-129 78 61 135 184 135 288 0 111 -63 236 -151 301 -90 66 -233 92 -334 60z"/>
</g>
</svg>
